<svg xmlns="http://www.w3.org/2000/svg" width="44.906" height="57.125" viewBox="0 0 44.906 57.125">
  <metadata><?xpacket begin="﻿" id="W5M0MpCehiHzreSzNTczkc9d"?>
<x:xmpmeta xmlns:x="adobe:ns:meta/" x:xmptk="Adobe XMP Core 5.6-c138 79.159824, 2016/09/14-01:09:01        ">
   <rdf:RDF xmlns:rdf="http://www.w3.org/1999/02/22-rdf-syntax-ns#">
      <rdf:Description rdf:about=""/>
   </rdf:RDF>
</x:xmpmeta>
                                                                                                    
                                                                                                    
                                                                                                    
                                                                                                    
                                                                                                    
                                                                                                    
                                                                                                    
                                                                                                    
                                                                                                    
                                                                                                    
                                                                                                    
                                                                                                    
                                                                                                    
                                                                                                    
                                                                                                    
                                                                                                    
                                                                                                    
                                                                                                    
                                                                                                    
                                                                                                    
                           
<?xpacket end="w"?></metadata>
<defs>
    <style>
      .cls-1 {
        fill: #33b4fc;
        fill-rule: evenodd;
      }
    </style>
  </defs>
  <path id="location_icon" data-name="location icon" class="cls-1" d="M407.262,441h0.151L392.448,458.14,377.483,441h0.151c-3.489-4.914-7.634-10.306-7.634-17.142a22.452,22.452,0,1,1,44.9,0C414.9,430.692,410.709,435.922,407.262,441Zm-14.814-36.189a18.88,18.88,0,0,0-18.707,19.047c0,5.862,3.928,11.387,6.7,14.6l12.01,13.975,12.01-13.975c3.409-4.274,6.7-8.733,6.7-14.6A18.88,18.88,0,0,0,392.448,404.809Zm0,32.924a14.285,14.285,0,1,1,14.285-14.285A14.285,14.285,0,0,1,392.448,437.733Zm0-24.489a10.2,10.2,0,1,0,10.2,10.2A10.2,10.2,0,0,0,392.448,413.244Z" transform="translate(-370 -401)"/>
</svg>
